<svg id="Capa_1" enable-background="new 0 0 512 512" height="512" viewBox="0 0 512 512" width="512" xmlns="http://www.w3.org/2000/svg"><g><path d="m409.6 477.867c0 18.851-15.282 34.133-34.133 34.133h-238.934c-18.851 0-34.133-15.282-34.133-34.133v-443.734c0-18.851 15.282-34.133 34.133-34.133h238.932c18.851 0 34.133 15.282 34.133 34.133z" fill="#3e4f55"/><g><g><path d="m256 41.859h-34.134c-4.268 0-7.726-3.459-7.726-7.726s3.459-7.726 7.726-7.726h34.134c4.268 0 7.726 3.459 7.726 7.726s-3.458 7.726-7.726 7.726z" fill="#303d42"/></g></g><g><path d="m290.133 41.859h-8.533c-4.268 0-7.726-3.459-7.726-7.726s3.459-7.726 7.726-7.726h8.533c4.268 0 7.726 3.459 7.726 7.726s-3.459 7.726-7.726 7.726z" fill="#e9f1ff"/></g><path d="m375.467 460.8c0 9.426-7.641 17.067-17.067 17.067h-204.8c-9.426 0-17.067-7.641-17.067-17.067v-409.6c0-9.426 7.641-17.067 17.067-17.067h28.859c3.232 0 6.187 1.826 7.632 4.717l9.991 19.982c2.891 5.782 8.801 9.434 15.265 9.434h81.305c6.464 0 12.374-3.652 15.265-9.434l9.991-19.982c1.445-2.891 4.4-4.717 7.632-4.717h28.86c9.426 0 17.067 7.641 17.067 17.067z" fill="#77d4f5"/><g><g fill="#69b4f4"><path d="m166.397 38.85 9.991 19.982c2.891 5.782 8.801 9.434 15.265 9.434h23.694c-6.464 0-12.374-3.652-15.265-9.434l-9.991-19.982c-1.445-2.891-4.4-4.717-7.632-4.717h-23.694c3.232 0 6.187 1.826 7.632 4.717z"/><path d="m375.466 51.2c0-9.426-7.641-17.066-17.067-17.066h-23.694c9.426 0 17.067 7.641 17.067 17.066l.001 409.6c0 9.426-7.641 17.067-17.067 17.067h23.694c9.426 0 17.067-7.641 17.067-17.067z"/></g></g><path d="m409.599 34.133c0-18.851-15.282-34.133-34.133-34.133h-23.694c18.851 0 34.133 15.282 34.134 34.133l.001 443.733c0 18.851-15.282 34.133-34.133 34.133h23.694c18.851 0 34.133-15.282 34.133-34.133z" fill="#303d42"/><g><path d="m324.266 230.4-68.266-63.842-68.267 63.842v25.601c0 37.702 30.564 68.266 68.266 68.266s68.266-30.564 68.266-68.266z" fill="#ffcebf"/><g><path d="m204.8 366.126h-25.6c-8.965 0-16.26-7.294-16.26-16.26v-25.6c0-4.267 3.459-7.726 7.726-7.726s7.726 3.459 7.726 7.726v25.6c0 .445.362.807.807.807h25.6c4.267 0 7.726 3.459 7.726 7.726s-3.458 7.727-7.725 7.727z" fill="#e9f1ff"/></g><g><path d="m332.8 366.126h-25.6c-4.267 0-7.726-3.459-7.726-7.726s3.459-7.726 7.726-7.726h25.6c.445 0 .807-.362.807-.807v-25.6c0-4.267 3.459-7.726 7.726-7.726s7.726 3.459 7.726 7.726v25.6c.001 8.965-7.293 16.259-16.259 16.259z" fill="#e9f1ff"/></g><g><path d="m341.333 161.327c-4.267 0-7.726-3.459-7.726-7.726v-25.601c0-.445-.362-.807-.807-.807h-25.6c-4.267 0-7.726-3.459-7.726-7.726s3.459-7.726 7.726-7.726h25.6c8.965 0 16.26 7.294 16.26 16.259v25.6c0 4.267-3.459 7.727-7.727 7.727z" fill="#e9f1ff"/></g><g><path d="m170.667 161.327c-4.267 0-7.726-3.459-7.726-7.726v-25.601c0-8.966 7.294-16.259 16.26-16.259h25.6c4.267 0 7.726 3.459 7.726 7.726s-3.459 7.726-7.726 7.726h-25.6c-.445 0-.807.362-.807.807v25.6c-.001 4.267-3.46 7.727-7.727 7.727z" fill="#e9f1ff"/></g><path d="m324.266 230.4-23.693-22.158-.002 47.759c0 33.659-24.367 61.608-56.419 67.22 3.85.674 7.804 1.046 11.847 1.046 37.702 0 68.266-30.564 68.266-68.266z" fill="#ffa78f"/><path d="m324.267 204.8c0-28.277-22.923-51.2-51.2-51.2h-34.133c-28.277 0-51.2 22.923-51.2 51.2v25.6c14.829 0 27.449-9.456 32.16-22.667 2.44-6.844 8.848-11.467 16.114-11.467h39.986c7.266 0 13.674 4.623 16.114 11.467 4.711 13.211 17.331 22.666 32.159 22.667z" fill="#3e4f55"/><path d="m300.573 204.8v16.027c6.139 5.924 14.489 9.572 23.694 9.572l.001-25.6c0-28.277-22.923-51.2-51.2-51.2h-23.694c28.276.001 51.199 22.924 51.199 51.201z" fill="#303d42"/></g><path d="m282.133 426.667h-52.267c-4.418 0-8-3.582-8-8v-18.133c0-4.418 3.582-8 8-8h52.267c4.418 0 8 3.582 8 8v18.133c0 4.418-3.581 8-8 8z" fill="#e9f1ff"/><path d="m281.892 392.533h-23.694c4.551 0 8.241 3.69 8.241 8.241v17.651c0 4.552-3.69 8.241-8.241 8.241h23.694c4.552 0 8.241-3.69 8.241-8.241v-17.651c0-4.551-3.689-8.241-8.241-8.241z" fill="#d7e4f7"/></g></svg>