<svg id="Capa_1" enable-background="new 0 0 512 512" height="512" viewBox="0 0 512 512" width="512" xmlns="http://www.w3.org/2000/svg"><g><g clip-rule="evenodd" fill-rule="evenodd"><path d="m164.469 7.512h191.424c26.164 0 47.565 21.401 47.565 47.566v401.872c0 26.164-21.401 47.566-47.565 47.566h-191.424c-26.163 0-47.565-21.402-47.565-47.566v-401.872c0-26.165 21.402-47.566 47.565-47.566z" fill="#a5cdff"/><path d="m331.628 7.512h24.265c26.164 0 47.565 21.401 47.565 47.566v401.872c0 26.164-21.401 47.566-47.565 47.566h-24.265c26.164 0 47.565-21.402 47.565-47.566v-401.872c.001-26.165-21.401-47.566-47.565-47.566z" fill="#8abfff"/><path d="m403.458 426.393v30.558c0 26.164-21.401 47.566-47.565 47.566h-191.424c-26.163 0-47.565-21.402-47.565-47.566v-30.558z" fill="#477b9e"/><path d="m344.639 7.512v29.141c0 9.865-8.079 17.944-17.972 17.944h-132.973c-9.893 0-17.972-8.079-17.972-17.944v-29.141z" fill="#477b9e"/><path d="m50.743 93.204h173.65c9.978 0 18.113 8.164 18.113 18.113v90.285c0 9.978-8.135 18.114-18.113 18.114h-26.079l-37.474 37.474c-3.203 3.203-7.71 1.36-7.71-3.203v-34.271h-102.387c-9.978 0-18.113-8.137-18.113-18.114v-90.285c0-9.949 8.135-18.113 18.113-18.113z" fill="#ecf4ff"/><path d="m287.606 218.498h173.65c9.978 0 18.113 8.135 18.113 18.113v90.256c0 9.978-8.136 18.142-18.113 18.142h-93.912v34.271c0 4.48-4.422 6.492-7.71 3.205l-37.474-37.476h-34.554c-9.95 0-18.113-8.164-18.113-18.142v-90.256c0-9.978 8.164-18.113 18.113-18.113z" fill="#ecf4ff"/><path d="m379.194 426.393v30.558c0 26.164-21.402 47.566-47.565 47.566h24.265c26.164 0 47.565-21.402 47.565-47.566v-30.558z" fill="#365e7d"/><path d="m320.375 7.512v29.141c0 9.865-8.079 17.944-17.972 17.944h24.264c9.893 0 17.972-8.079 17.972-17.944v-27.327-1.814z" fill="#365e7d"/><g fill="#ddeafb"><path d="m269.493 326.867c0 9.978 8.164 18.142 18.113 18.142h34.554l37.474 37.476c3.288 3.287 7.71 1.275 7.71-3.205v-34.271h93.912c9.978 0 18.113-8.164 18.113-18.142v-90.256c0-9.979-8.136-18.113-18.113-18.113h-6.151v84.105c0 9.978-8.135 18.142-18.113 18.142-55.843 0-111.657 0-167.499 0z"/><path d="m32.63 201.602c0 9.978 8.135 18.114 18.113 18.114h66.161 36.227v34.271c0 4.564 4.507 6.406 7.71 3.203l37.474-37.474h26.079c9.978 0 18.113-8.137 18.113-18.114v-90.285c0-9.949-8.135-18.113-18.113-18.113h-6.151v84.134c0 9.949-8.164 18.113-18.114 18.113h-83.225-84.274z"/></g></g><path d="m109.42 85.692v-30.614c0-15.166 6.18-28.942 16.158-38.892 9.978-9.978 23.754-16.186 38.891-16.186h191.424c15.165 0 28.913 6.208 38.891 16.187 9.978 9.949 16.186 23.726 16.186 38.892v55.786c0 4.139-3.373 7.512-7.512 7.512-4.138 0-7.483-3.373-7.483-7.512v-55.787c0-11.026-4.535-21.034-11.792-28.29-7.257-7.285-17.263-11.793-28.289-11.793h-3.77v21.657c0 14.004-11.424 25.456-25.456 25.456h-132.974c-14.031 0-25.455-11.452-25.455-25.456v-21.657h-3.77c-10.999 0-21.033 4.508-28.29 11.793-7.257 7.256-11.764 17.264-11.764 28.29v30.614h99.978c7.059 0 13.465 2.892 18.113 7.54 4.621 4.649 7.512 11.056 7.512 18.085v28.149c0 4.167-3.374 7.512-7.512 7.512s-7.483-3.345-7.483-7.512v-28.149c0-2.891-1.219-5.556-3.146-7.483-1.927-1.928-4.563-3.118-7.483-3.118h-107.49-66.161c-2.919 0-5.556 1.191-7.483 3.118-1.927 1.928-3.146 4.593-3.146 7.483v90.285c0 2.919 1.219 5.556 3.146 7.483 1.928 1.927 4.564 3.146 7.483 3.146h66.161 36.227c4.139 0 7.483 3.346 7.483 7.484v27.099l32.343-32.371c1.361-1.36 3.26-2.212 5.357-2.212h26.079c2.92 0 5.556-1.22 7.483-3.146 1.928-1.928 3.146-4.564 3.146-7.483v-28.148c0-4.139 3.345-7.512 7.483-7.512 4.139 0 7.512 3.373 7.512 7.512v28.148c0 7.058-2.892 13.465-7.512 18.114-4.648 4.62-11.055 7.512-18.113 7.512h-22.989l-42.973 42.973c-2.92 2.948-7.682 2.948-10.601 0-1.474-1.445-2.211-3.373-2.211-5.301v-37.672h-21.204v74.665c0 4.139-3.373 7.512-7.512 7.512s-7.483-3.373-7.483-7.512v-74.665h-58.676c-7.058 0-13.464-2.892-18.113-7.512-4.621-4.649-7.512-11.057-7.512-18.114v-90.285c0-7.029 2.891-13.436 7.512-18.085 4.649-4.648 11.055-7.54 18.113-7.54zm204.435 184.169c-4.139 0-7.483-3.345-7.483-7.483 0-4.139 3.345-7.512 7.483-7.512h121.153c4.139 0 7.512 3.373 7.512 7.512s-3.373 7.483-7.512 7.483zm0 38.751c-4.139 0-7.483-3.346-7.483-7.483 0-4.139 3.345-7.514 7.483-7.514h60.577c4.139 0 7.512 3.375 7.512 7.514 0 4.138-3.373 7.483-7.512 7.483zm-236.863-164.014c-4.139 0-7.512-3.374-7.512-7.512 0-4.139 3.373-7.483 7.512-7.483h121.153c4.139 0 7.512 3.345 7.512 7.483s-3.373 7.512-7.512 7.512zm0 38.749c-4.139 0-7.512-3.373-7.512-7.512s3.373-7.483 7.512-7.483h121.153c4.139 0 7.512 3.345 7.512 7.483 0 4.139-3.373 7.512-7.512 7.512zm199.985 81.412c0 4.139-3.345 7.512-7.483 7.512-4.139 0-7.512-3.373-7.512-7.512v-28.147c0-7.059 2.892-13.465 7.54-18.113 4.62-4.621 11.026-7.513 18.085-7.513h108.368v-66.133c0-4.167 3.345-7.512 7.483-7.512 4.139 0 7.512 3.345 7.512 7.512v66.133h50.287c7.058 0 13.464 2.892 18.113 7.513 4.621 4.648 7.512 11.055 7.512 18.113v90.256c0 7.058-2.891 13.465-7.512 18.113-4.649 4.648-11.055 7.512-18.113 7.512h-50.287v73.9 30.558c0 15.138-6.208 28.914-16.186 38.893-9.978 9.976-23.726 16.156-38.891 16.156h-191.424c-15.137 0-28.913-6.18-38.891-16.157-9.978-9.979-16.158-23.755-16.158-38.893v-30.558-90.512c0-4.138 3.345-7.512 7.483-7.512 4.139 0 7.512 3.374 7.512 7.512v83h271.559v-66.389h-21.118v37.702c0 4.139-3.373 7.483-7.512 7.483-2.069 0-3.968-.851-5.329-2.211l-42.945-42.975h-31.464c-7.058 0-13.465-2.863-18.085-7.512-4.649-4.648-7.54-11.056-7.54-18.113v-28.121c0-4.167 3.373-7.512 7.512-7.512 4.138 0 7.483 3.345 7.483 7.512v28.121c0 2.92 1.219 5.584 3.146 7.512s4.563 3.118 7.483 3.118h34.554c1.928 0 3.855.737 5.301 2.211l32.4 32.372v-27.071c0-4.139 3.345-7.512 7.483-7.512h36.113 57.799c2.919 0 5.556-1.19 7.512-3.118 1.928-1.928 3.118-4.592 3.118-7.512v-90.256c0-2.92-1.19-5.557-3.118-7.483-1.956-1.956-4.592-3.146-7.512-3.146h-57.799-115.85c-2.92 0-5.556 1.191-7.483 3.146-1.928 1.927-3.146 4.564-3.146 7.483zm-50.004 208.18c-4.139 0-7.483-3.345-7.483-7.484s3.345-7.512 7.483-7.512h66.416c4.138 0 7.483 3.373 7.483 7.512 0 4.14-3.345 7.484-7.483 7.484zm110.154-457.944h-153.892v21.657c0 5.726 4.734 10.461 10.459 10.461h132.973c5.754 0 10.46-4.735 10.46-10.461zm58.848 418.881h-271.559v23.074c0 10.999 4.507 21.006 11.764 28.291 7.256 7.256 17.291 11.764 28.29 11.764h191.424c11.027 0 21.033-4.508 28.289-11.764 7.257-7.285 11.792-17.292 11.792-28.291z"/></g></svg>