<svg id="Layer_5" enable-background="new 0 0 64 64" height="512" viewBox="0 0 64 64" width="512" xmlns="http://www.w3.org/2000/svg"><path d="m53 31h-6.5l-2.06 2.472c-.279.335-.692.528-1.127.528-.747 0-1.375-.562-1.458-1.305l-.188-1.695h-30.667c-1.103 0-2 .897-2 2v24c0 1.103.897 2 2 2h42c1.103 0 2-.897 2-2v-24c0-1.103-.897-2-2-2z" fill="#f0bc5e"/><path d="m5 40h2v6h-2z"/><path d="m5 48h2v2h-2z"/><path d="m58 27h-1.815c4.076-2.45 6.815-6.907 6.815-12 0-3.976-1.699-7.777-4.663-10.432-3.005-2.691-6.888-3.927-10.926-3.48-2.778.307-5.342 1.476-7.411 3.223v-3.311h-28v24h27.224c.275.267.557.528.856.775l.136 1.225h-34.216c-2.757 0-5 2.243-5 5v26c0 2.757 2.243 5 5 5h52c2.757 0 5-2.243 5-5v-26c0-2.757-2.243-5-5-5zm-9 0h-.468l-4.859 5.832c-.243.288-.782.127-.824-.247l-.873-7.861-.333-.259c-.44-.343-.85-.711-1.232-1.1 1.15-3.771 4.607-6.365 8.589-6.365s7.438 2.593 8.589 6.363c-2.182 2.24-5.223 3.637-8.589 3.637zm-4-16c0-2.206 1.794-4 4-4s4 1.794 4 4-1.794 4-4 4-4-1.794-4-4zm2.631-7.924c.465-.052.927-.077 1.385-.077 2.962 0 5.757 1.062 7.987 3.059 2.54 2.275 3.997 5.534 3.997 8.942 0 2.413-.722 4.658-1.953 6.542-1.216-2.759-3.499-4.865-6.281-5.877 1.361-1.101 2.234-2.782 2.234-4.665 0-3.309-2.691-6-6-6s-6 2.691-6 6c0 1.883.873 3.564 2.235 4.665-2.777 1.01-5.056 3.11-6.274 5.862-1.579-2.409-2.263-5.321-1.831-8.315.763-5.287 5.18-9.549 10.501-10.136zm-29.631-.076v4h-4v-4zm-4 16h4v4h-4zm6 4v-6h-6v-8h6v-6h18v3.382c-.821 1.04-1.5 2.193-2 3.431v-4.813h-4v2h2v2h-2v2h3.586c-.188.627-.341 1.268-.436 1.925-.004.025-.005.05-.008.075h-3.142v2h3.005c-.001.675.048 1.343.141 2h-5.146v4h2v-2h3.579c.423 1.426 1.074 2.775 1.935 4zm41 35c0 1.654-1.346 3-3 3h-52c-1.654 0-3-1.346-3-3v-26c0-1.654 1.346-3 3-3h34.438l.423 3.806c.139 1.251 1.193 2.194 2.452 2.194.734 0 1.424-.323 1.895-.887l4.261-5.113h8.531c1.654 0 3 1.346 3 3z"/><path d="m22 5h2v4h-2z"/><path d="m22 17h2v-6h-8v2h6z"/><path d="m26 19h-4v2h6v-4h-2z"/><path d="m30 11h-4v4h2v-2h2z"/><path d="m30 5h-2v2h-2v2h4z"/><path d="m57 41h2v8h-2z"/><path d="m32 41c-2.206 0-4 1.794-4 4s1.794 4 4 4 4-1.794 4-4-1.794-4-4-4zm0 6c-1.103 0-2-.897-2-2s.897-2 2-2 2 .897 2 2-.897 2-2 2z"/><path d="m43 37h4v4h2v-6h-5.687-.313z"/><path d="m47 53h-4v2h6v-6h-2z"/><path d="m17 49h-2v6h6v-2h-4z"/><path d="m15 41h2v-4h4v-2h-6z"/></svg>