<svg id="Filled" height="512" viewBox="0 0 512 512" width="512" xmlns="http://www.w3.org/2000/svg"><path d="m285.353 296c-12.5-12.5-2.366-42.889 22.627-67.882s55.385-35.124 67.882-22.627z" fill="#35a872"/><path d="m328 376c-45.679 0-85.171 19.575-104 48h208c-18.829-28.425-58.321-48-104-48z" fill="#757c80"/><path d="m414.623 424a275.677 275.677 0 0 0 9.377-72c0-45.024-10.448-86.574-28.08-120h-35.92c20.234 30.492 32.788 72.991 32.788 120a244.9 244.9 0 0 1 -10.512 72z" fill="#ad6643"/><path d="m360 424h-336v64h336c35.346 0 64-14.327 64-32s-28.654-32-64-32" fill="#3397e8"/><path d="m360 232c0-17.673 28.654-32 64-32s64 14.327 64 32z" fill="#3dc285"/><path d="m360 232c-17.673 0-32-28.654-32-64s14.327-64 32-64z" fill="#35a872"/><path d="m357.491 231.862c-12.5-12.5-2.367-42.889 22.627-67.882s55.382-35.124 67.882-22.627z" fill="#38b37a"/><path d="m232 232c0-17.673 28.654-32 64-32s64 14.327 64 32z" fill="#3dc285"/><circle cx="352" cy="248" fill="#cfdb8c" r="16"/><circle cx="384" cy="248" fill="#b1bd70" r="16"/><path d="m392 352c-42.165 0-78.62 29.362-96 72h192c-17.38-42.638-53.835-72-96-72z" fill="#7e8589"/><circle cx="144" cy="104" fill="#ffd33a" r="32"/><path d="m328 464a8 8 0 0 0 0-16h-64a8 8 0 0 0 0 16z"/><path d="m216 448h-80a8 8 0 0 0 0 16h80a8 8 0 0 0 0-16z"/><path d="m144 64a40 40 0 1 0 40 40 40.045 40.045 0 0 0 -40-40zm0 64a24 24 0 1 1 24-24 24.028 24.028 0 0 1 -24 24z"/><path d="m152 40v-16a8 8 0 0 0 -16 0v16a8 8 0 0 0 16 0z"/><path d="m232 104a8 8 0 0 0 -8-8h-16a8 8 0 0 0 0 16h16a8 8 0 0 0 8-8z"/><path d="m152 184v-16a8 8 0 0 0 -16 0v16a8 8 0 0 0 16 0z"/><path d="m56 104a8 8 0 0 0 8 8h16a8 8 0 0 0 0-16h-16a8 8 0 0 0 -8 8z"/><path d="m104.4 53.088-11.312-11.313a8 8 0 0 0 -11.313 11.313l11.313 11.312a8 8 0 1 0 11.312-11.312z"/><path d="m194.912 64.4 11.313-11.314a8 8 0 0 0 -11.313-11.313l-11.312 11.315a8 8 0 0 0 11.312 11.312z"/><path d="m194.912 166.225a8 8 0 0 0 11.313-11.313l-11.313-11.312a8 8 0 1 0 -11.312 11.312z"/><path d="m81.775 154.912a8 8 0 1 0 11.313 11.313l11.312-11.313a8 8 0 1 0 -11.312-11.312z"/><path d="m120 272a8.009 8.009 0 0 1 8 8 8 8 0 0 0 16 0 8 8 0 0 1 16 0 8 8 0 0 0 16 0 23.988 23.988 0 0 0 -40-17.874 23.988 23.988 0 0 0 -40 17.874 8 8 0 0 0 16 0 8.009 8.009 0 0 1 8-8z"/><path d="m32 328a8 8 0 0 0 16 0 8 8 0 0 1 16 0 8 8 0 0 0 16 0 8 8 0 0 1 16 0 8 8 0 0 0 16 0 23.988 23.988 0 0 0 -40-17.874 23.988 23.988 0 0 0 -40 17.874z"/><path d="m88 448h-64a8 8 0 0 0 0 16h64a8 8 0 0 0 0-16z"/><path d="m454.156 365.658a107.989 107.989 0 0 0 -23.345-13.658h1.189c0-40.181-8.012-78.611-23.25-112h79.25a8 8 0 0 0 8-8c0-11.736-8.228-22.313-23.167-29.783-13.178-6.589-30.52-10.217-48.833-10.217a133.936 133.936 0 0 0 -16.323.99l45.98-45.981a8 8 0 0 0 0-11.313c-8.3-8.3-21.595-9.96-37.442-4.678-13.976 4.659-28.8 14.356-41.754 27.305q-3.387 3.387-6.461 6.936v-61.259a8 8 0 0 0 -8-8c-11.736 0-22.313 8.228-29.783 23.167-6.589 13.178-10.217 30.52-10.217 48.833a128.6 128.6 0 0 0 2.718 26.721 129.142 129.142 0 0 0 -26.718-2.721c-18.313 0-35.655 3.628-48.833 10.217-14.939 7.47-23.167 18.047-23.167 29.783a8 8 0 0 0 8 8h55.535c-17.06 24.332-20.651 48.845-7.839 61.657a8 8 0 0 0 11.313 0l40.764-40.764a23.96 23.96 0 0 0 36.227 4.976c.36.322.731.631 1.109.932 9.38 23.343 14.707 49.954 15.547 77.49-19.536 1.469-38.352 8.771-54.812 21.367-1 .766-1.988 1.556-2.967 2.357-44.939.3-85.4 18.523-107.032 47.985h-195.845a8 8 0 0 0 -8 8v64a8 8 0 0 0 8 8h336c18.313 0 35.655-3.628 48.833-10.217 14.939-7.47 23.167-18.047 23.167-29.783 0-8.968-4.819-17.255-13.752-24h69.752a8 8 0 0 0 7.408-11.02c-9.208-22.58-23.471-41.715-41.252-55.322zm-102.156-249.921v72.989a81.176 81.176 0 0 0 -5.71 14.26c-.485-.257-.957-.519-1.457-.769-1.313-.657-2.678-1.275-4.071-1.872a106.939 106.939 0 0 1 -4.762-32.345c0-24.545 7.431-44.339 16-52.263zm-22.954 125.256-41.079 41.078c-.46-10.125 6.01-26.1 19.885-42.071h21.524c-.116.328-.228.658-.33.993zm-85.309-16.993c7.924-8.569 27.718-16 52.263-16s44.339 7.431 52.263 16zm108.263 32a8 8 0 1 1 8-8 8.009 8.009 0 0 1 -8 8zm63.93 90.978a98.117 98.117 0 0 0 -15.263-2.586 249.179 249.179 0 0 0 -12.7-72.726 23.97 23.97 0 0 0 13.442-7.168 259.817 259.817 0 0 1 14.521 82.48zm-55.43-134.346c1.886-12.752 11.441-29.166 25.27-42.995 17.357-17.358 36.594-26.108 48.27-25.642l-57.621 57.625c-.417.2-.842.392-1.252.6a53.186 53.186 0 0 0 -14.667 10.412zm63.5-4.632c24.545 0 44.339 7.431 52.263 16h-104.526c7.924-8.569 27.718-16 52.263-16zm-40 48a8 8 0 1 1 8-8 8.009 8.009 0 0 1 -8 8zm-74.216 129.148a137.934 137.934 0 0 0 -19.043 30.852h-49.752c16.533-16.258 41.331-27.394 68.795-30.852zm50.216 94.852h-328v-48h328c32.051 0 56 12.671 56 24s-23.949 24-56 24zm-51.493-64a112.675 112.675 0 0 1 31.06-37.636c15.7-12.014 33.833-18.364 52.433-18.364s36.733 6.35 52.433 18.364a112.675 112.675 0 0 1 31.06 37.636z"/></svg>