<svg xmlns="http://www.w3.org/2000/svg" xmlns:xlink="http://www.w3.org/1999/xlink" viewBox="0 0 144.77 144.77"><defs><style>.cls-1{fill:none;}.cls-2{isolation:isolate;}.cls-3{fill:#14b0bf;}.cls-4{clip-path:url(#clip-path);}.cls-5{fill:#f1c9a5;}.cls-6{fill:#e4b692;}.cls-7{fill:#ddac8c;opacity:0.1;mix-blend-mode:multiply;}.cls-8{fill:#0d313d;}.cls-9{fill:#f1f2f2;}.cls-10{fill:#2b5770;}.cls-11{fill:#fff;}.cls-12{fill:#262421;}</style><clipPath id="clip-path"><path class="cls-1" d="M144.77,72.39a72.39,72.39,0,1,0-72.39,72.38A72.39,72.39,0,0,0,144.77,72.39Z"/></clipPath></defs><title>Asset 1</title><g class="cls-2"><g id="Layer_2" data-name="Layer 2"><g id="Objects"><path class="cls-3" d="M144.77,72.39a72.39,72.39,0,1,0-72.39,72.38A72.39,72.39,0,0,0,144.77,72.39Z"/><g class="cls-4"><path class="cls-5" d="M107.05,116.94c-4.66-8.83-34.66-14.38-34.66-14.38s-30,5.55-34.67,14.38c-3.45,12.26-6.33,27.83-6.33,27.83h82S111.44,128.07,107.05,116.94Z"/><path class="cls-6" d="M72.39,102.56s30,5.55,34.66,14.38c4.39,11.13,6.34,27.83,6.34,27.83h-41Z"/><rect class="cls-5" x="64.22" y="84.61" width="16.33" height="27.34"/><rect class="cls-6" x="72.39" y="84.61" width="8.17" height="27.34"/><path class="cls-7" d="M64.22,97.27c1.47,4.22,7.4,6.64,11.75,6.64a14.75,14.75,0,0,0,4.58-.75V84.61H64.22Z"/><path class="cls-5" d="M93.39,67.36c0-17.08-9.41-26.79-21-26.79s-21,9.71-21,26.79c0,23,9.4,30.91,21,30.91S93.39,89.37,93.39,67.36Z"/><path class="cls-6" d="M90.19,79.2c-3.81-.4-6.38-4.5-5.73-9.16s4.24-8.12,8.05-7.72,6.37,4.49,5.73,9.15S94,79.59,90.19,79.2Z"/><path class="cls-5" d="M46.68,71.47c-.64-4.66,1.93-8.76,5.73-9.15s7.42,3.06,8.05,7.72-1.92,8.76-5.73,9.16S47.32,76.13,46.68,71.47Z"/><path class="cls-6" d="M93.39,67.36c0-17.08-9.41-26.79-21-26.79v57.7C84,98.27,93.39,89.37,93.39,67.36Z"/><path class="cls-8" d="M107.05,116.94C104.33,111.78,93,107.75,84,105.28l-11.6,39.49-11.6-39.49c-9,2.47-20.34,6.5-23.07,11.66-3.45,12.26-6.33,27.83-6.33,27.83h82S111.44,128.07,107.05,116.94Z"/><polygon class="cls-9" points="60.41 105.28 72.39 144.77 84.03 105.28 72.39 118.54 60.41 105.28"/><polygon class="cls-10" points="72.39 144.77 90.11 125.03 84.03 122.72 94.61 108.35 84.33 105.28 72.39 144.77"/><polygon class="cls-10" points="72.39 144.77 54.66 125.03 60.74 122.72 50.16 108.35 60.44 105.28 72.39 144.77"/><path class="cls-11" d="M57.36,121.33l9.08-8.43,5.93,5.64-8.15-14.16-5,.39C58.88,110.27,57.36,121.33,57.36,121.33Z"/><path class="cls-11" d="M87.38,121.33l-9.07-8.43-5.94,5.64,8.15-14.16,5,.39C85.86,110.27,87.38,121.33,87.38,121.33Z"/><path class="cls-12" d="M95.44,63.51S91.7,60.68,90.09,69c.53-7.79.15-18.54-6.18-20.5C80.4,54.79,66.5,58.86,57.37,56.61c.7,7.17-1.41,13.07-3.8,14.61.14-5.76.14-9.27-3.51-8.14-1-12.08,5.63-27.4,23.47-27.4S97.27,47.77,95.44,63.51Z"/></g></g></g></g></svg>